<svg xmlns="http://www.w3.org/2000/svg" width="689.7359mm" height="521.39252mm" viewBox="0 0 689.7359 521.39252"><path d="M0 0c-97.795-23.225-161.662-29.493-167.415-12.784C-173.86 5.763-108.106 51.486 0 106.192Zm941.405 380.691c-9.215 25.338-95.629 21.441-225.728-6.962v68.164h-91.188V261.279c5.978-1.999 11.381-5.3 15.891-9.574 18.779 9.516 37.24 19.176 55.255 29.073 16.042 8.651 20.042 23.671 20.042 31.923v49.25c98.15 20.972 163.087 25.283 169.371 8.693 5.752-15.193-37.992-46.761-113.735-86.371-33.471-17.467-73.232-36.557-117.735-56.427.511-2.682.807-5.478.807-8.295 0-19.381-12.521-35.799-29.896-41.739V-8.086c0-10.8-4.306-18.079-14.596-18.079-10.505 0-13.908 7.279-13.908 18.079v185.898a44.2 44.2 0 0 0-21.461 15.864c-61.905-25.874-129.976-52.443-201.256-78.285-56.922-20.612-112.23-39.433-164.448-56.142-.386-.092-.736-.226-1.134-.35-31.579-10.069-61.991-19.353-90.94-27.767V-6.667c0-25.82-8.662-25.82-25.934-25.82v411.103c17.272 0 25.934 0 25.934-25.864V47.019a4566 4566 0 0 1 90.94 29.31v283.197c0 83.41-77.651 81.178-77.651 81.178H0V119.111C-142.099 48.567-227.502-12.892-217.277-40.955c8.999-24.734 91.941-22.369 217.277 3.5v-58.066h130.605s77.081-3.199 77.081 84.167v27.46a3244 3244 0 0 1 51.717 16.053V-95.199h90.328V62.308c3.608 1.253 7.242 2.521 10.865 3.806l25.569-161.313h93.102L442.419 96.059a3540 3540 0 0 1 63.045 24.606V-14.994c0-70.426 59.507-83.371 105.235-83.371 45.223 0 104.978 13.091 104.978 84.129v228.465c147.249 73.243 236.152 137.852 225.728 166.462m-375.327-161.14c0 19.375 12.526 35.809 29.907 41.728v180.614h-90.521V188.929a2724 2724 0 0 1 60.803 27.057c-.081 1.205-.189 2.366-.189 3.565m-143.491-20.547 52.083 242.152h-84.834l-40.105-208.364v208.364h-90.328V93.94c53.632 18.65 111.827 40.046 171.119 63.851z" style="fill:#1d4e9e;fill-opacity:1;fill-rule:nonzero;stroke:none" transform="matrix(.35278 0 0 -.35278 217.14 321.29)"/><path d="M0 0c0 401.147 433.355 727.477 966.024 727.477 532.688 0 966.049-326.33 966.049-727.477 0-401.115-433.361-727.472-966.049-727.472C433.355-727.472 0-401.115 0 0m-11.548 0c0-407.459 438.532-738.971 977.572-738.971 539.053 0 977.585 331.512 977.585 738.971 0 407.518-438.532 738.992-977.585 738.992C426.984 738.992-11.548 407.518-11.548 0" style="fill:#1d4e9e;fill-opacity:1;fill-rule:nonzero;stroke:none" transform="matrix(.35278 0 0 -.35278 4.074 260.7)"/><path d="M0 0c0 375.101 412.244 680.305 918.872 680.305 506.678 0 918.89-305.204 918.89-680.305s-412.212-680.271-918.89-680.271C412.244-680.271 0-375.101 0 0m-24.047 0c0-388.363 423.017-704.301 942.919-704.301 519.946 0 942.91 315.938 942.91 704.301 0 388.396-422.964 704.365-942.91 704.365C398.97 704.365-24.047 388.396-24.047 0" style="fill:#1d4e9e;fill-opacity:1;fill-rule:nonzero;stroke:none" transform="matrix(.35278 0 0 -.35278 20.712 260.708)"/><path d="M0 0c0 375.101 412.244 680.305 918.872 680.305 506.678 0 918.89-305.204 918.89-680.305s-412.212-680.271-918.89-680.271C412.244-680.271 0-375.101 0 0m-24.047 0c0-388.363 423.017-704.301 942.919-704.301 519.946 0 942.91 315.938 942.91 704.301 0 388.396-422.964 704.365-942.91 704.365C398.97 704.365-24.047 388.396-24.047 0" style="fill:#1d4e9e;fill-opacity:1;fill-rule:nonzero;stroke:none" transform="matrix(.35278 0 0 -.35278 20.712 260.708)"/><path d="M0 0c0-12.505-10.128-22.649-22.606-22.649-12.499 0-22.617 10.144-22.617 22.649 0 12.461 10.118 22.611 22.617 22.611C-10.128 22.611 0 12.461 0 0" style="fill:#1d4e9e;fill-opacity:1;fill-rule:nonzero;stroke:none" transform="matrix(.35278 0 0 -.35278 631.162 306.27)"/><path d="M0 0c0-12.505 10.123-22.649 22.617-22.649S45.223-12.505 45.223 0c0 12.461-10.112 22.611-22.606 22.611S0 12.461 0 0" style="fill:#1d4e9e;fill-opacity:1;fill-rule:nonzero;stroke:none" transform="matrix(.35278 0 0 -.35278 58.576 306.27)"/><path d="m0 0-13.526-16.101-15.628 13.134-24.921-29.665-24.81 20.843 18.776 22.348-83.788 64.485q-6.83 5.507-6.76 12.827c.045 4.882 1.559 9.091 4.537 12.639l42.024 50.024 73.066-61.383-13.637-16.23-48.526 40.766-26.821-31.928 72.982-55.637L-9.37 70.958 15.44 50.11l-31.068-36.976Zm-111.423-19.627 40.027-33.622-13.187-15.698-100.755 84.64q-5.21 4.378-5.881 10.956c-.447 4.387 1.86 9.591 6.927 15.623l21.009 25.009 26.184-21.999-21.343-25.407z" style="fill:#1d4e9e;fill-opacity:1;fill-rule:nonzero;stroke:none" transform="matrix(.35278 0 0 -.35278 156.471 404.835)"/><path d="m0 0 126.183-55.964q8.838-3.92 12.916-12.387 4.078-8.457-1.131-20.213l-13.685-30.418 9.491-4.209-7.749-17.472-69.23 30.702-10.354-23.343 47.626-21.128q7.363-3.257 8.946-9.192c1.053-3.946.758-7.779-.885-11.483l-15.144-34.149-30.77 13.645 13.597 30.653-120.945 53.643 7.889 17.789 56.465-25.047 10.354 23.347-60.064 26.639 7.75 17.472 123.562-54.803 14.981 34.224-118.326 52.48z" style="fill:#1d4e9e;fill-opacity:1;fill-rule:nonzero;stroke:none" transform="matrix(.35278 0 0 -.35278 178.026 397.554)"/><path d="m0 0-28.934-152.077-29.546 5.624 15.203 79.876-13.891 2.64-15.207-79.876-28.32 5.391 4.354 22.87-71.624 11.505q-9.178 1.572-14.172 8.354-5 6.788-3.403 15.15l21.273 111.799 75.098-14.289-3.898-20.483-44.142 8.403-17.375-91.317 61.598-9.602L-72.105 13.72l28.667-5.457-9.677-50.863 13.892-2.639 9.677 50.862z" style="fill:#1d4e9e;fill-opacity:1;fill-rule:nonzero;stroke:none" transform="matrix(.35278 0 0 -.35278 304.557 436.74)"/><path d="m0 0 31.503.543.635-36.831 18.622.322.355-20.498-18.622-.323.591-33.874-31.503-.543zm-49.298-69.324q8.5 5.532 8.354 14.048-.161 8.686-8.838 13.833-8.693 5.144-20.321 4.951c-7.645-.135-14.171-2.016-19.601-5.64-5.43-3.629-8.086-8.338-7.989-14.128.097-5.677 2.924-10.258 8.473-13.752 5.548-3.494 12.149-5.177 19.783-5.043 7.764.129 14.473 2.043 20.139 5.731m-68.889-33.864 133.358 2.313c6.924.118 11.903-1.624 14.956-5.215 3.043-3.597 4.613-7.941 4.699-13.037l.624-35.616-31.687-.549-.591 33.88-121.014-2.097zm98.629 64.007c4.495-4.73 6.795-10.278 6.914-16.649.183-10.537-5.075-19.289-15.752-26.251-10.687-6.967-24.257-10.591-40.729-10.87q-24.53-.429-40.9 9.456-16.37 9.88-16.645 25.686c-.107 6.371 2 12 6.333 16.881q6.5 7.322 17.322 12.725l-23.988-.413-.505 18.928 38.492.667-.258 14.768 39.019.677.258-14.768 37.772.657.505-18.935-25.6-.44c7.343-3.35 13.257-7.387 17.762-12.119" style="fill:#1d4e9e;fill-opacity:1;fill-rule:nonzero;stroke:none" transform="matrix(.35278 0 0 -.35278 365.049 437.488)"/><path d="m0 0-119.175-27.364-4.43 19.305L2.204 20.827q13.435 3.08 20.419-1.371c4.666-2.973 7.913-8.468 9.763-16.483L54.47-93.209l10.644 2.445 4.549-19.81-167.517-38.46-4.548 19.81 25.999 5.974-18.042 78.57 29.137 6.688 18.042-78.571 22.515 5.167-18.042 78.57 27.397 6.29 18.042-78.57 20.417 4.687z" style="fill:#1d4e9e;fill-opacity:1;fill-rule:nonzero;stroke:none" transform="matrix(.35278 0 0 -.35278 442.848 433.173)"/><path d="m0 0-8.516 17.112-26.761-13.317 8.505-17.111zm24.687-75.334c6.096 5.161 8.236 9.564 6.429 13.193-1.806 3.629-6.612 4.569-14.407 2.828Q5.016-61.935-13.096-70.942q-18.112-9.014-27.257-16.763c-6.096-5.166-8.235-9.563-6.429-13.197 1.806-3.624 6.601-4.57 14.397-2.828 7.795 1.747 17.74 5.623 29.815 11.634q18.112 9.006 27.257 16.762m6.472 38.438q22.95 2.495 29.45-10.569c4.387-8.817 1.28-18.773-9.333-29.874-10.612-11.102-25.794-21.569-45.567-31.402-19.772-9.838-37.277-15.638-52.534-17.407q-22.87-2.646-29.45 10.58c-4.333 8.709-1.226 18.665 9.333 29.869C-56.384-74.496-41.224-63.98-21.45-54.142Q8.194-39.394 31.159-36.896m-91.166 20.042-37.342-18.579a336 336 0 0 0 4.881-9.408q2.323-4.668 4.484-9.021l37.267 18.343zm-18.569 37.337 28.052 13.956 6.183-12.445 26.772 13.321-7.43 14.93L3.215 64.281l41.169-82.758-28.213-14.032-7.118 14.311-26.762-13.322 3.86-7.773-74.049-36.847c-5.559-2.764-11.032-3.355-16.418-1.764-5.387 1.586-9.354 4.925-11.881 10.005l-27.783 55.841 28.051 13.956 9.677-19.44 37.342 18.58z" style="fill:#1d4e9e;fill-opacity:1;fill-rule:nonzero;stroke:none" transform="matrix(.35278 0 0 -.35278 519.488 414.53)"/><path d="m0 0 14.074-14.913L-94.134-117.02c-3.215-3.026-6.989-4.51-11.311-4.457-4.323.065-9.108 2.882-14.354 8.441l-22.182 23.504 23.181 21.87 22.3-23.633zm-109.359-26.278 16.805-17.816-22.396-21.128-16.806 17.817-30.471-28.757-13.956 14.79 98.317 92.768-40.665 43.094 22.913 21.622 79.178-83.908-22.913-21.622-7.515 7.956-33.859-31.944-10.73 11.37 33.858 31.95-6.322 6.698zm-27.052 40.535c2.806 5.118 3.333 8.602 1.591 10.451-1.752 1.855-5.258 1.527-10.537-.973-5.258-2.5-10.978-6.661-17.15-12.477-6.16-5.818-10.644-11.279-13.45-16.397q-4.193-7.677-1.581-10.451c1.753-1.86 5.258-1.532 10.526.973 5.269 2.5 10.989 6.661 17.15 12.477 6.172 5.818 10.655 11.28 13.451 16.397m-.377 33.923c12.44 4.731 21.128 4.484 26.053-.742 4.924-5.225 4.666-13.902-.775-26.052-5.44-12.139-14.375-24.074-26.783-35.782-12.332-11.634-24.729-19.838-37.213-24.607-12.483-4.773-21.192-4.548-26.116.678-4.936 5.22-4.656 13.929.828 26.111 5.494 12.188 14.397 24.095 26.729 35.729 12.408 11.709 24.837 19.934 37.277 24.665" style="fill:#1d4e9e;fill-opacity:1;fill-rule:nonzero;stroke:none" transform="matrix(.35278 0 0 -.35278 610.078 377.58)"/><path d="m0 0 51.438-30.235 4.115 7q3.717 6.328-.65 11.735c-2.911 3.603-9.198 8.247-18.87 13.93-8.846 5.204-15.091 8.311-18.736 9.338Q8.399 14.291 4.395 7.483Zm54.47-51.459L-20.02-7.672-5.838 16.45Q2.04 29.851 14.663 29.133c6.908-.371 16.76-4.318 29.552-11.833l4.954-2.914q8.563-5.034 13.357-9.397c4.994-4.57 8.11-9.193 9.341-13.86q2.354-8.983-3.554-19.041z" style="fill:#1d4e9e;fill-opacity:1;fill-rule:nonzero;stroke:none" transform="matrix(.35278 0 0 -.35278 75.022 181.71)"/><path d="m0 0-34.148 17.214 24.138-29.598Zm10.093-38.887L-.32-51.779l-53.115 71.517 13.908 17.211L41.261-.317 30.148-14.072l-17.59 8.5-14.397-17.816z" style="fill:#1d4e9e;fill-opacity:1;fill-rule:nonzero;stroke:none" transform="matrix(.35278 0 0 -.35278 106.336 161.622)"/><path d="m0 0-11.354-10.709-59.225 62.792 16.488 15.553L2.462 38.772l-40.871 43.653 11.354 10.709L32.17 30.342 16.085 15.171l-59.249 30.915Z" style="fill:#1d4e9e;fill-opacity:1;fill-rule:nonzero;stroke:none" transform="matrix(.35278 0 0 -.35278 127.972 154.804)"/><path d="m0 0 14.792 11.069 5.177-44.414 46.435-24.571-15.146-11.333-41.89 23.851 26.297-35.517-13.419-10.039-51.613 68.985 13.419 10.04 22.06-29.488z" style="fill:#1d4e9e;fill-opacity:1;fill-rule:nonzero;stroke:none" transform="matrix(.35278 0 0 -.35278 136.365 108.067)"/><path d="M0 0q5.645 3.419 3.621 11.005Q1.899 17.231-7.4 32.57q-9.301 15.338-14.031 19.743-5.693 5.354-11.432 1.877-5.644-3.426-3.621-11.004 1.722-6.233 11.021-21.569 9.298-15.339 14.512-20.22Q-5.741-3.483 0 0m6.677-11.011q-11.116-6.743-19.971-4.566-7.6 1.818-14.723 10.354-4.2 4.996-12.069 17.972-7.866 12.974-10.357 19.01-4.237 10.418-2.47 17.786 2.168 8.856 13.375 15.655 11.024 6.682 19.97 4.564 7.6-1.822 14.663-10.252 4.197-4.999 12.128-18.074 7.867-12.976 10.36-19.009 4.273-10.262 2.405-17.685Q17.79-4.273 6.677-11.011" style="fill:#1d4e9e;fill-opacity:1;fill-rule:nonzero;stroke:none" transform="matrix(.35278 0 0 -.35278 169.386 117.796)"/><path d="M0 0q5.968 2.904 4.661 10.642-1.129 6.362-8.975 22.477c-5.231 10.741-9.285 17.72-12.158 20.929q-5.186 5.847-11.249 2.895-5.967-2.907-4.664-10.642c.753-4.241 3.744-11.736 8.975-22.477q7.845-16.116 12.594-21.448Q-6.067-2.954 0 0m5.61-11.526q-11.68-5.686-20.292-2.715-7.395 2.502-13.693 11.639-3.717 5.353-10.346 18.972-6.628 13.616-8.55 19.849-3.258 10.748-.815 17.907 2.972 8.606 14.752 14.343 11.58 5.637 20.292 2.718Q-5.651 68.684.6 59.652q3.712-5.354 10.397-19.079 6.628-13.62 8.55-19.845 3.305-10.596.764-17.8Q17.287-5.839 5.61-11.526" style="fill:#1d4e9e;fill-opacity:1;fill-rule:nonzero;stroke:none" transform="matrix(.35278 0 0 -.35278 192.085 105.433)"/><path d="m0 0 17.19 6.704-6.865-44.213 38.194-36.127-17.604-6.865-33.971 34.187 15.848-41.253-15.655-6.105-31.328 80.339 15.654 6.104L-5.128-41.61z" style="fill:#1d4e9e;fill-opacity:1;fill-rule:nonzero;stroke:none" transform="matrix(.35278 0 0 -.35278 209.12 69.413)"/><path d="m0 0 16.171 4.393 16.034-59.04q2.912-10.726-.952-18.956-4.75-10.08-18.361-13.779-12.975-3.523-21.523 1.46t-11.806 16.978L-36.471-9.905-20.3-5.513l15.738-57.942q1.972-7.273 5.616-10.062 3.64-2.791 8.26-1.538 10.31 2.799 6.424 17.113z" style="fill:#1d4e9e;fill-opacity:1;fill-rule:nonzero;stroke:none" transform="matrix(.35278 0 0 -.35278 244.865 58.073)"/><path d="m0 0-15.483-2.954-16.144 84.64 22.219 4.239 32.095-54.608-10.962 58.637 15.483 2.954L43.353 8.269 21.676 4.134l-33.272 57.838Z" style="fill:#1d4e9e;fill-opacity:1;fill-rule:nonzero;stroke:none" transform="matrix(.35278 0 0 -.35278 270.282 83.375)"/><path d="m0 0-16.687-2.226-11.408 85.5 16.687 2.226z" style="fill:#1d4e9e;fill-opacity:1;fill-rule:nonzero;stroke:none" transform="matrix(.35278 0 0 -.35278 298.023 78.827)"/><path d="m0 0-26.966 84.178 17.397 1.47L8.107 24.249l8.914 63.644 16.504 1.395L19.612 1.656Z" style="fill:#1d4e9e;fill-opacity:1;fill-rule:nonzero;stroke:none" transform="matrix(.35278 0 0 -.35278 309.192 77.592)"/><path d="m0 0-44.631-1.129-2.183 86.189 43.75 1.104.334-13.246-26.886-.68.532-21.16 24.772.626.339-13.246-24.772-.627.64-25.289 27.772.705z" style="fill:#1d4e9e;fill-opacity:1;fill-rule:nonzero;stroke:none" transform="matrix(.35278 0 0 -.35278 343.542 75.848)"/><path d="m0 0-.785-24.085 7.365-.242q4.5-.148 6.838 3.973 1.87 3.299 2.038 8.451.195 5.993-1.86 8.757Q11.54-.378 7.365-.242zm-1.226-37.331-1.167-35.611-16.859.554 2.828 86.188 30.96-1.016c5.85-.194 10.365-2.296 13.569-6.311s4.683-9.653 4.447-16.908q-.284-8.734-3.802-13.883c-2.569-3.747-6.504-6.014-11.794-6.799q6.183-1.395 8.569-3.263 5.756-4.364 5.424-14.373a253 253 0 0 1-.026-15.025c.129-5.253.521-8.683 1.166-10.296l-16.521.543q-.933 2.412-1.214 5.702a57 57 0 0 0-.172 6.744q.136 2.853.145 4.287.121 2.5.123 3.812c.172 5.239-.258 8.83-1.301 10.773-1.591 2.992-4.946 4.572-10.085 4.742z" style="fill:#1d4e9e;fill-opacity:1;fill-rule:nonzero;stroke:none" transform="matrix(.35278 0 0 -.35278 355.703 50.327)"/><path d="M0 0q-1.413-14.83-11.155-19.77c-4.623-2.355-10.989-3.145-19.112-2.374-9.451.898-15.725 4.288-18.811 10.172C-51.411-7.521-52.164-.862-51.314 8l16.687-1.586q-.742-7.791.226-10.623 1.58-4.677 7.935-5.276 4.24-.405 6.602 2.005c1.58 1.604 2.515 3.911 2.795 6.916.398 4.113-2.043 8.314-7.3 12.607a1372 1372 0 0 0-15.462 12.781q-8.014 8.781-6.973 19.697 1.058 11.153 7.156 16.562 7.191 6.379 21.456 5.023c8.182-.779 13.907-3.378 17.165-7.797 3.263-4.422 4.463-11.142 3.613-20.158l-16.343 1.551q.556 5.891-.484 8.965-1.388 4.175-6.032 4.618-8.614.816-9.478-8.32-.605-6.406 7.516-12.805c9.924-7.806 15.026-11.844 15.295-12.107Q1.09 11.506 0 0" style="fill:#1d4e9e;fill-opacity:1;fill-rule:nonzero;stroke:none" transform="matrix(.35278 0 0 -.35278 390.624 70.232)"/><path d="m0 0-16.687 2.411 12.333 85.328 16.687-2.411Z" style="fill:#1d4e9e;fill-opacity:1;fill-rule:nonzero;stroke:none" transform="matrix(.35278 0 0 -.35278 401.458 80.18)"/><path d="m0 0 53.33-10.273-2.715-14.107-18.407 3.546-13.591-70.534-16.515 3.18 13.591 70.533-18.408 3.548z" style="fill:#1d4e9e;fill-opacity:1;fill-rule:nonzero;stroke:none" transform="matrix(.35278 0 0 -.35278 411.5 50.886)"/><path d="m0 0 7.51 28.891-6.123 59.821 17.709-4.602 2.429-38.244 21.569 32.006 16.623-4.323-36.035-48.862-7.511-28.891Z" style="fill:#1d4e9e;fill-opacity:1;fill-rule:nonzero;stroke:none" transform="matrix(.35278 0 0 -.35278 433.726 86.643)"/><path d="m0 0 18.063-6.8L30.24 25.542l15.655-5.892-30.374-80.684-15.655 5.892 13.536 35.955-18.063 6.801-13.537-35.955-15.655 5.892 30.374 80.683 15.655-5.892z" style="fill:#1d4e9e;fill-opacity:1;fill-rule:nonzero;stroke:none" transform="matrix(.35278 0 0 -.35278 473.176 79.673)"/><path d="M0 0c4.043-1.924 7.822-.946 11.328 2.938q4.28 4.829 11.972 20.996 7.694 16.164 8.741 22.539 1.307 7.702-4.87 10.642c-4.054 1.927-7.828.949-11.333-2.936-2.86-3.22-6.849-10.22-11.978-20.996-5.129-10.778-8.08-18.512-8.865-23.205S-4.118 1.962 0 0m-5.569-11.698Q-17.337-6.101-20.386 2.5q-2.661 7.353.549 18.001 1.871 6.258 8.386 19.967 6.526 13.705 10.204 19.101c4.252 6.182 8.763 10.126 13.516 11.835q8.604 3.053 20.466-2.591 11.66-5.55 14.822-14.198c1.774-4.903 1.601-10.867-.506-17.894-1.247-4.172-4.053-10.862-8.44-20.072C34.267 7.51 30.869 1.145 28.418-2.454c-4.161-6.139-8.645-10.048-13.473-11.725q-8.757-3.114-20.514 2.481" style="fill:#1d4e9e;fill-opacity:1;fill-rule:nonzero;stroke:none" transform="matrix(.35278 0 0 -.35278 495.144 104.246)"/><path d="M0 0c-5.032-8.561-11.193-12.959-18.472-13.192q-7.783-.267-18.332 5.935Q-49.097-.035-49.567 9.924q-.355 7.54 6.419 19.058l14.451-8.494q-3.969-6.75-4.285-9.725-.538-4.906 4.962-8.145 3.678-2.153 6.838-.975 3.164 1.183 5.463 5.086c2.085 3.558 1.655 8.399-1.307 14.517a1460 1460 0 0 0-8.629 18.134q-3.556 11.346 2 20.8c3.785 6.437 8.28 10.429 13.494 11.971q9.225 2.734 21.612-4.545c7.096-4.174 11.203-8.956 12.3-14.342 1.097-5.388-.656-11.984-5.236-19.79l-14.107 8.29c1.989 3.395 3.102 6.169 3.328 8.319q.493 4.373-3.554 6.752Q-3.348 61.259-8 53.349q-3.255-5.549 1.409-14.786 8.564-16.92 8.768-17.457C4.628 13.677 3.903 6.645 0 0" style="fill:#1d4e9e;fill-opacity:1;fill-rule:nonzero;stroke:none" transform="matrix(.35278 0 0 -.35278 527.165 116.844)"/><path d="m0 0-14.58-20.3 7.677-5.513q3.017-2.169 7.032-.72 4.014 1.443 6.779 5.29c2.404 3.348 3.737 6.23 3.984 8.639.29 2.975-1.022 5.513-3.946 7.615zm-56.335-49.766 50.4 70.189L18.676 2.755c6.032-4.333 9.139-9.419 9.333-15.257.139-5.408-2.215-11.483-7.053-18.225q-5.87-8.171-12.58-11.018-9.853-4.137-20.456 3.484l-10.155 7.295-20.51-28.557z" style="fill:#1d4e9e;fill-opacity:1;fill-rule:nonzero;stroke:none" transform="matrix(.35278 0 0 -.35278 547.704 109.627)"/><path d="m0 0-12.902 10.854 55.711 66.233 12.902-10.855Z" style="fill:#1d4e9e;fill-opacity:1;fill-rule:nonzero;stroke:none" transform="matrix(.35278 0 0 -.35278 551.094 144.999)"/><path d="m0 0 38.622-38.003-10.076-10.236-13.332 13.117-50.448-51.265-11.957 11.768L3.258-23.354l-13.333 13.118z" style="fill:#1d4e9e;fill-opacity:1;fill-rule:nonzero;stroke:none" transform="matrix(.35278 0 0 -.35278 575.773 125.97)"/><path d="m0 0 24.17 29.684-34.191-17.128Zm-40.197-1.479-10.327 12.954 81.296 36.393 13.795-17.297-53.846-70.816L-20.3-26.429-8.107-11.01-22.386 6.892Z" style="fill:#1d4e9e;fill-opacity:1;fill-rule:nonzero;stroke:none" transform="matrix(.35278 0 0 -.35278 587.471 166.598)"/><path d="m0 0-21.746 35.928L52.229 80.71l8.644-14.278-61.76-37.39L12.215 7.397Z" style="fill:#1d4e9e;fill-opacity:1;fill-rule:nonzero;stroke:none" transform="matrix(.35278 0 0 -.35278 594.113 197.318)"/></svg>